<svg width="800" height="800" viewBox="0 0 800 800" fill="none" xmlns="http://www.w3.org/2000/svg">
<path d="M360.851 466.961V685.449C360.851 702.544 347.176 716.387 330.176 716.387C313.226 716.387 299.502 702.544 299.502 685.449V541.547L52.2804 790.973C46.2805 796.999 38.4556 800 30.6058 800C22.7559 800 14.931 796.999 8.98111 790.973C-2.9937 778.895 -2.9937 759.328 8.98111 747.276L256.252 497.875H113.579C96.6297 497.875 82.905 484.032 82.905 466.961C82.905 449.891 96.6297 436.048 113.579 436.048H330.176C347.176 436.073 360.851 449.916 360.851 466.961ZM466.349 367.388H682.996C699.945 367.388 713.67 353.545 713.67 336.474C713.67 319.404 699.945 305.561 682.996 305.561H540.323L791.019 52.7811C802.994 40.7032 802.994 21.1616 791.019 9.08367C779.044 -2.99427 759.669 -2.99427 747.72 9.08367L497.023 261.888V117.987C497.023 100.916 483.299 87.0734 466.349 87.0734C449.449 87.0734 435.724 100.916 435.724 117.987V336.474C435.749 353.545 449.474 367.388 466.349 367.388ZM543.748 497.875H686.421C703.37 497.875 717.045 484.032 717.045 466.961C717.045 449.891 703.37 436.048 686.421 436.048H469.824C452.824 436.048 439.149 449.891 439.149 466.961V685.449C439.149 702.544 452.824 716.387 469.824 716.387C486.724 716.387 500.448 702.544 500.448 685.449V541.547L747.72 790.973C753.719 796.999 761.544 800 769.344 800C777.194 800 785.019 796.999 791.019 790.973C802.994 778.895 802.994 759.328 791.019 747.276L543.748 497.875ZM333.601 87.0986C316.701 87.0986 302.977 100.942 302.977 118.012V261.914L52.3054 9.05846C40.3306 -3.01949 20.9059 -3.01949 9.00611 9.05846C-2.9687 21.1364 -2.9687 40.678 9.00611 52.7559L259.627 305.561H117.004C100.055 305.561 86.3299 319.404 86.3299 336.474C86.3299 353.545 100.055 367.388 117.004 367.388H333.601C350.551 367.388 364.276 353.545 364.276 336.474V117.987C364.251 100.942 350.526 87.0986 333.601 87.0986Z" fill="black"/>
</svg>
